<?xml version="1.0" encoding="utf-8"?>
<!-- Generator: Adobe Illustrator 24.1.2, SVG Export Plug-In . SVG Version: 6.00 Build 0)  -->
<svg version="1.1" id="Layer_1" xmlns="http://www.w3.org/2000/svg" xmlns:xlink="http://www.w3.org/1999/xlink" x="0px" y="0px"
	 viewBox="0 0 28.3 28.3" style="enable-background:new 0 0 28.3 28.3;" xml:space="preserve">
<style type="text/css">
	.st0{clip-path:url(#SVGID_2_);fill:#1D1D1B;}
	.st1{clip-path:url(#SVGID_4_);fill:#FFFFFF;}
</style>
<g>
	<g>
		<defs>
			<rect id="SVGID_1_" y="0" width="28.3" height="28.3"/>
		</defs>
		<clipPath id="SVGID_2_">
			<use xlink:href="#SVGID_1_"  style="overflow:visible;"/>
		</clipPath>
		<path class="st0" d="M0,14.1C0,6.3,6.3,0,14.1,0s14.1,6.3,14.1,14.1S22,28.3,14.1,28.3l0,0C6.3,28.3,0,21.9,0,14.1L0,14.1z"/>
	</g>
	<g>
		<defs>
			<rect id="SVGID_3_" y="0" width="28.3" height="28.3"/>
		</defs>
		<clipPath id="SVGID_4_">
			<use xlink:href="#SVGID_3_"  style="overflow:visible;"/>
		</clipPath>
		<path class="st1" d="M20.5,8.4c-1.2-0.5-2.5-0.9-3.8-1.2c-0.2,0.3-0.3,0.7-0.5,1c-1.4-0.2-2.8-0.2-4.2,0c-0.1-0.3-0.3-0.7-0.5-1
			C10.3,7.4,9,7.8,7.8,8.4c-2.4,3.5-3,7-2.7,10.4c1.4,1,3,1.8,4.6,2.3c0.4-0.5,0.7-1,1-1.6c-0.5-0.2-1.1-0.4-1.5-0.7
			c0.1-0.1,0.2-0.2,0.4-0.3c2.9,1.4,6.3,1.4,9.2,0c0.1,0.1,0.2,0.2,0.4,0.3c-0.5,0.3-1,0.5-1.6,0.7c0.3,0.6,0.6,1.1,1,1.6
			c1.7-0.5,3.2-1.3,4.6-2.3C23.6,14.8,22.6,11.4,20.5,8.4z M11.1,16.7c-0.9,0-1.6-0.8-1.6-1.8s0.7-1.8,1.6-1.8
			c0.9,0,1.6,0.8,1.6,1.8C12.8,15.9,12.1,16.7,11.1,16.7z M17.2,16.7c-0.9,0-1.6-0.8-1.6-1.8s0.7-1.8,1.6-1.8c0.9,0,1.6,0.8,1.6,1.8
			S18.1,16.7,17.2,16.7z"/>
	</g>
</g>
</svg>
