<?xml version="1.0" encoding="utf-8"?>
<!-- Generator: Adobe Illustrator 24.1.2, SVG Export Plug-In . SVG Version: 6.00 Build 0)  -->
<svg version="1.1" id="Layer_1" xmlns="http://www.w3.org/2000/svg" xmlns:xlink="http://www.w3.org/1999/xlink" x="0px" y="0px"
	 viewBox="0 0 334.5 141.7" style="enable-background:new 0 0 334.5 141.7;" xml:space="preserve">
<style type="text/css">
	.st0{fill:#FFFFFF;}
</style>
<g>
	<g id="g881" transform="scale(4.2382754)">
		<g>
			<g id="g879">
				<path id="path861" class="st0" d="M17,10.5c-1.3-0.6-2.6-1-4-1.3c-0.2,0.3-0.4,0.7-0.5,1.1c-1.5-0.2-3-0.2-4.5,0
					C7.9,10,7.7,9.5,7.5,9.2c-1.4,0.2-2.8,0.7-4,1.3C1,14.3,0.3,18.1,0.6,21.8c1.7,1.3,3.3,2,4.9,2.5c0.4-0.5,0.8-1.1,1.1-1.7
					c-0.6-0.2-1.1-0.5-1.7-0.8c0.1-0.1,0.3-0.2,0.4-0.3c3.2,1.5,6.7,1.5,9.9,0c0.1,0.1,0.3,0.2,0.4,0.3c-0.5,0.3-1.1,0.6-1.7,0.8
					c0.3,0.6,0.7,1.2,1.1,1.7c1.6-0.5,3.2-1.3,4.9-2.5C20.3,17.5,19.2,13.8,17,10.5z M7,19.5c-1,0-1.8-0.9-1.8-2s0.8-2,1.8-2
					s1.8,0.9,1.8,2C8.7,18.6,7.9,19.5,7,19.5z M13.4,19.5c-1,0-1.8-0.9-1.8-2s0.8-2,1.8-2s1.8,0.9,1.8,2S14.4,19.5,13.4,19.5z"/>
				<path id="path863" class="st0" d="M26.6,13.1h4.2c1,0,1.9,0.2,2.6,0.5c0.7,0.3,1.2,0.8,1.6,1.3c0.3,0.6,0.5,1.2,0.5,2
					c0,0.7-0.2,1.4-0.5,2c-0.4,0.6-0.9,1.1-1.7,1.4s-1.7,0.5-2.8,0.5h-3.9L26.6,13.1L26.6,13.1z M30.5,18.8c0.7,0,1.2-0.2,1.6-0.5
					c0.4-0.3,0.5-0.8,0.5-1.4c0-0.6-0.2-1-0.5-1.3c-0.3-0.3-0.8-0.5-1.5-0.5h-1.3v3.8L30.5,18.8L30.5,18.8z"/>
				<path id="path865" class="st0" d="M41.7,20.7c-0.6-0.2-1.1-0.4-1.6-0.7v-1.8c0.4,0.3,0.8,0.5,1.4,0.7c0.6,0.2,1.2,0.3,1.7,0.3
					c0.3,0,0.5,0,0.6-0.1s0.2-0.2,0.2-0.2c0-0.1,0-0.2-0.1-0.3s-0.2-0.1-0.4-0.2l-1.3-0.3c-0.7-0.2-1.3-0.4-1.6-0.7
					c-0.2-0.4-0.4-0.8-0.4-1.3c0-0.4,0.1-0.8,0.4-1.1c0.3-0.3,0.7-0.6,1.2-0.7c0.5-0.2,1.1-0.3,1.8-0.3c0.6,0,1.2,0.1,1.7,0.2
					c0.5,0.1,0.9,0.3,1.2,0.5v1.7c-0.3-0.2-0.7-0.4-1.2-0.5c-0.4-0.1-0.9-0.2-1.4-0.2c-0.7,0-1,0.1-1,0.4c0,0.1,0.1,0.2,0.2,0.2
					c0.1,0.1,0.3,0.1,0.6,0.2l1.1,0.2c0.7,0.1,1.2,0.3,1.6,0.7c0.3,0.3,0.5,0.8,0.5,1.4c0,0.7-0.3,1.2-0.9,1.6
					c-0.6,0.4-1.4,0.6-2.4,0.6C42.9,21,42.3,20.9,41.7,20.7L41.7,20.7z"/>
				<path id="path867" class="st0" d="M49.3,20.5c-0.6-0.3-1.1-0.7-1.4-1.2c-0.3-0.5-0.5-1.1-0.5-1.8s0.2-1.2,0.5-1.8
					c0.3-0.6,0.8-0.9,1.4-1.2c0.6-0.3,1.4-0.4,2.2-0.4c1.1,0,2,0.2,2.7,0.7v2c-0.2-0.2-0.5-0.3-0.9-0.4s-0.7-0.2-1.1-0.2
					c-0.7,0-1.2,0.1-1.6,0.4c-0.4,0.2-0.6,0.6-0.6,1s0.2,0.7,0.5,1c0.4,0.3,0.9,0.4,1.6,0.4c0.4,0,0.7-0.1,1.1-0.2
					c0.3-0.1,0.6-0.2,0.9-0.4v1.9c-0.8,0.5-1.7,0.7-2.7,0.7C50.7,21,49.9,20.8,49.3,20.5L49.3,20.5z"/>
				<path id="path869" class="st0" d="M56.9,20.5c-0.6-0.3-1.1-0.7-1.4-1.3c-0.3-0.5-0.5-1.1-0.5-1.8s0.2-1.2,0.5-1.8
					c0.3-0.5,0.8-0.9,1.4-1.2s1.3-0.4,2.2-0.4c0.9,0,1.6,0.1,2.2,0.4c0.6,0.3,1.1,0.7,1.4,1.2c0.3,0.5,0.5,1.1,0.5,1.8
					s-0.2,1.3-0.5,1.8s-0.8,1-1.4,1.3S60,21,59.1,21C58.3,20.9,57.6,20.8,56.9,20.5L56.9,20.5z M60.2,18.5c0.3-0.3,0.4-0.6,0.4-1.1
					s-0.1-0.8-0.4-1c-0.3-0.3-0.6-0.4-1.1-0.4c-0.5,0-0.8,0.1-1.1,0.4c-0.3,0.3-0.4,0.6-0.4,1s0.1,0.8,0.4,1.1s0.6,0.4,1.1,0.4
					C59.6,18.9,59.9,18.8,60.2,18.5z"/>
				<path id="path871" class="st0" d="M69.7,14.4v2.4c-0.3-0.2-0.6-0.3-1.1-0.3c-0.6,0-1,0.2-1.3,0.5c-0.3,0.4-0.5,0.9-0.5,1.6v2
					h-2.6v-6.4h2.6v2c0.1-0.7,0.4-1.3,0.7-1.6c0.3-0.4,0.7-0.5,1.2-0.5C69.1,14.2,69.4,14.3,69.7,14.4z"/>
				<path id="path873" class="st0" d="M78.4,12.8v7.9h-2.6v-1.4c-0.2,0.5-0.6,1-1,1.2c-0.5,0.3-1,0.4-1.7,0.4
					c-0.6,0-1.1-0.1-1.6-0.4c-0.4-0.3-0.8-0.7-1-1.2s-0.4-1.1-0.4-1.7c0-0.7,0.1-1.3,0.4-1.8c0.3-0.5,0.6-0.9,1.1-1.2s1-0.4,1.6-0.4
					c1.3,0,2.1,0.6,2.5,1.7V13h2.7V12.8z M75.4,18.5c0.3-0.3,0.4-0.6,0.4-1s-0.1-0.7-0.4-1s-0.6-0.4-1.1-0.4c-0.4,0-0.8,0.1-1.1,0.4
					c-0.3,0.3-0.4,0.6-0.4,1s0.1,0.8,0.4,1c0.3,0.3,0.6,0.4,1.1,0.4S75.1,18.8,75.4,18.5L75.4,18.5z"/>
				<path id="path875" class="st0" d="M37.7,15c0.7,0,1.3-0.5,1.3-1.2s-0.6-1.2-1.3-1.2s-1.3,0.5-1.3,1.2S37,15,37.7,15z"/>
				<path id="path877" class="st0" d="M36.4,15.8c0.8,0.4,1.8,0.4,2.6,0v4.9h-2.6V15.8z"/>
			</g>
		</g>
	</g>
</g>
</svg>
